<?xml version="1.0" encoding="utf-8"?>
<?xml-stylesheet type="text/xsl" href="rss1.xsl"?>
<rss version="2.0" xmlns:atom="http://www.w3.org/2005/Atom" xmlns:content="http://purl.org/rss/1.0/modules/content/" xmlns:dc="http://purl.org/dc/elements/1.1/" xmlns:media="http://search.yahoo.com/mrss/">
<channel>
 <title>Getty</title>
 <link>http://www.gettyimg.com/</link>
 <atom:link href="http://www.gettyimg.com/" rel="self" type="application/rss+xml" />

 
                <item>
                <title><![CDATA[【Music Videos】Depeche Mode - Personal Jesus (Harmony Mix) (VJ-RoGeRs Video Edit) (Clean)]]></title>
                <link><![CDATA[https://sharemania.us/threads/depeche-mode-personal-jesus-harmony-mix-vj-rogers-video-edit-clean.240513/]]></link>
                <description><![CDATA[<article>
<blockquote class="messageText SelectQuoteContainer ugc baseHtml">
<img src="https://i.ibb.co/2FkhJT1/Depeche-Mode-Personal-Jesus-Harmony-Mix-VJ-Ro-Ge-Rs-Video-Edit-mp4-thumbs-2024-03-22-20-18-42.jpg" class="bbCodeImage LbImage" alt="[​IMG]" data-url="https://i.ibb.co/2FkhJT1/Depeche-Mode-Personal-Jesus-Harmony-Mix-VJ-Ro-Ge-Rs-Video-Edit-mp4-thumbs-2024-03-22-20-18-42.jpg" style=""> <br>
<br>
<div class="ToggleTriggerAnchor bbCodeSpoilerContainer">
<button type="button" class="button bbCodeSpoilerButton ToggleTrigger Tooltip JsOnly" data-target="> .SpoilerTarget"><span>Spoiler: <span class="SpoilerTitle">MediaInfo</span></span></button>
<div class="SpoilerTarget bbCodeSpoilerText">Depeche Mode - Personal Jesus (Harmony Mix) (VJ-RoGeRs Video Edit).mp4<br>
Format : MPEG-4<br>
Format profile : Base Media / Version 2<br>
Codec ID : mp42 (mp42/mp41)<br>
File size : 361 MiB<br>
Duration : 4 min 56 s<br>
Overall bit rate mode : Variable<br>
Overall bit rate : 10.2 Mb/s<br>
Frame rate : 25.000 FPS<br>
Encoded date : 2020-05-20 03:18:51 UTC<br>
Tagged date : 2020-05-20 03:19:01 UTC<br>
TIM : 00:00:00:00<br>
TSC : 25<br>
TSZ : 1<br>
<br>
Video<br>
ID : 1<br>
Format : AVC<br>
Format/Info : Advanced Video Codec<br>
Format profile : High@L3.1<br>
Format settings : CABAC / 4 Ref Frames<br>
Format settings, CABAC : Yes<br>
Format settings, Reference : 4 frames<br>
Codec ID : avc1<br>
Codec ID/Info : Advanced Video Coding<br>
Duration : 4 min 56 s<br>
Bit rate mode : Variable<br>
Bit rate : 9 897 kb/s<br>
Maximum bit rate : 12.0 Mb/s<br>
Width : 720 pixels<br>
Height : 576 pixels<br>
Display aspect ratio : 4:3<br>
Original display aspect rat : 4:3<br>
Frame rate mode : Constant<br>
Frame rate : 25.000 FPS<br>
Standard : PAL<br>
Color space : YUV<br>
Chroma subsampling : 4:2:0<br>
Bit depth : 8 bits<br>
Scan type : Interlaced<br>
Scan type, store method : Separated fields<br>
Scan order : Top Field First<br>
Bits/(Pixel*Frame) : 0.955<br>
Stream size : 349 MiB (97%)<br>
Language : English<br>
Encoded date : 2020-05-20 03:18:51 UTC<br>
Tagged date : 2020-05-20 03:18:51 UTC<br>
Color range : Limited<br>
Color primaries : BT.601 PAL<br>
Transfer characteristics : BT.470 System B/G<br>
Matrix coefficients : BT.470 System B/G<br>
Codec configuration box : avcC<br>
<br>
Audio<br>
ID : 2<br>
Format : AAC LC<br>
Format/Info : Advanced Audio Codec Low Complexity<br>
Codec ID : mp4a-40-2<br>
Duration : 4 min 56 s<br>
Source duration : 4 min 56 s<br>
Bit rate mode : Variable<br>
Bit rate : 317 kb/s<br>
Maximum bit rate : 421 kb/s<br>
Channel(s) : 2 channels<br>
Channel layout : L R<br>
Sampling rate : 48.0 kHz<br>
Frame rate : 46.875 FPS (1024 SPF)<br>
Compression mode : Lossy<br>
Stream size : 11.2 MiB (3%)<br>
Source stream size : 11.2 MiB (3%)<br>
Language : English<br>
Encoded date : 2020-05-20 03:18:51 UTC<br>
Tagged date : 2020-05-20 03:18:51 UTC</div>
</div><br>
*Edición trabajada en base a multipistas, con el fin de sentir el tema de manera más armoniosa y escuchar otros sonidos que pasan desapercibidos! **Recomiendo escuchar con audífonos!!!<br>
**Edition worked based on multitracks, in order to feel the song in a more harmonious way and listen to other sounds that go unnoticed! **I recommend listening with headphones!!!<br>
<br>
<div class="bbCodeBlock bbCodeVfcHH HiddenContent">
<div class="attribution type">Hidden Content:</div>
<blockquote>You must reply before you can see the hidden data contained here.</blockquote>
</div>
<div class="messageTextEndMarker">&nbsp;</div>
</blockquote>
</article>]]></description>
                <author><![CDATA[DJ-RoGeRs-BS]]></author>
                </item>

                
                <item>
                <title><![CDATA[【SD Live Performances】SDTV - Mariah Carey - It's Like That - Ant &amp; Dec's Saturday Night Takeaway 2005-03-26 576i MPA2.0 MPEG2]]></title>
                <link><![CDATA[https://sharemania.us/threads/mariah-carey-its-like-that-ant-decs-saturday-night-takeaway-2005-03-26-576i-mpa2-0-mpeg2.240516/]]></link>
                <description><![CDATA[<article>
<blockquote class="messageText SelectQuoteContainer ugc baseHtml">
<div style="text-align: center"><img src="https://i.ibb.co/ZcDjYY3/Mariah-Carey-It-s-Like-That-Ant-Dec-s-Saturday-Night-Takeaway-2005-03-26-576i-MPA2-0-MPEG2-mpg.png" class="bbCodeImage LbImage" alt="[​IMG]" data-url="https://i.ibb.co/ZcDjYY3/Mariah-Carey-It-s-Like-That-Ant-Dec-s-Saturday-Night-Takeaway-2005-03-26-576i-MPA2-0-MPEG2-mpg.png" style=""><br>
<div class="bbCodeBlock bbCodeVfcHH HiddenContent">
<div class="attribution type">Hidden Content:</div>
<blockquote>You must either reply or click 'Like' to see the hidden information contained here.</blockquote>
</div></div>
<div class="messageTextEndMarker">&nbsp;</div>
</blockquote>
</article>]]></description>
                <author><![CDATA[SCANDAL]]></author>
                </item>

                
                <item>
                <title><![CDATA[【HD Live Performances】WEB-DL - Omar Apollo Lollapalooza Argentina (2024) 1080p FLOW WEB-DL AAC2.0 H.264-fstambuk]]></title>
                <link><![CDATA[https://sharemania.us/threads/omar-apollo-lollapalooza-argentina-2024-1080p-flow-web-dl-aac2-0-h-264-fstambuk.240519/]]></link>
                <description><![CDATA[<article>
<blockquote class="messageText SelectQuoteContainer ugc baseHtml">
<div style="text-align: center"><img src="https://i.ibb.co/2nx5gWt/20240323015253.gif" class="bbCodeImage LbImage" alt="[​IMG]" data-url="https://i.ibb.co/2nx5gWt/20240323015253.gif" style=""><br>
​</div>
<div class="ToggleTriggerAnchor bbCodeSpoilerContainer">
<button type="button" class="button bbCodeSpoilerButton ToggleTrigger Tooltip JsOnly" data-target="> .SpoilerTarget"><span>Spoiler: <span class="SpoilerTitle">Lollapalooza</span></span></button>
<div class="SpoilerTarget bbCodeSpoilerText">
<div class="bbCodeBlock bbCodeCode">
<div class="type">Code:</div>
<pre>Complete name                            : Omar Apollo Lollapalooza Argentina (2024) 1080p FLOW WEB-DL AAC2.0 H.264-fstambuk.mkv
Format                                   : Matroska
Format version                           : Version 4
File size                                : 1.98 GiB
Duration                                 : 58 min 2 s
Overall bit rate                         : 4 872 kb/s
Frame rate                               : 29.970 FPS
Writing application                      : Lavf57.26.100
Writing library                          : Lavf57.26.100

Video
ID                                       : 1
Format                                   : AVC
Format/Info                              : Advanced Video Codec
Format profile                           : High@L4
Format settings                          : CABAC / 3 Ref Frames
Format settings, CABAC                   : Yes
Format settings, Reference frames        : 3 frames
Format settings, GOP                     : M=1, N=60
Codec ID                                 : V_MPEG4/ISO/AVC
Duration                                 : 58 min 2 s
Width                                    : 1 920 pixels
Height                                   : 1 080 pixels
Display aspect ratio                     : 16:9
Active Format Description                : Full frame 16:9 image
Frame rate mode                          : Constant
Frame rate                               : 29.970 (30000/1001) FPS
Color space                              : YUV
Chroma subsampling                       : 4:2:0
Bit depth                                : 8 bits
Scan type                                : Progressive
Writing library                          : AVC
Default                                  : Yes
Forced                                   : No
VENDOR_ID                                : TELE

Audio
ID                                       : 2
Format                                   : AAC LC SBR
Format/Info                              : Advanced Audio Codec Low Complexity with Spectral Band Replication
Commercial name                          : HE-AAC
Format settings                          : Implicit
Codec ID                                 : 2 / A_AAC-2
Duration                                 : 58 min 2 s
Channel(s)                               : 2 channels
Channel layout                           : L R
Sampling rate                            : 48.0 kHz
Frame rate                               : 23.438 FPS (2048 SPF)
Compression mode                         : Lossy
Language                                 : Spanish
Default                                  : Yes
Forced                                   : No

</pre>
</div><div style="text-align: center">​</div></div>
</div><div style="text-align: center"><br>
<div class="bbCodeBlock bbCodeVfcHH HiddenContent">
<div class="attribution type">Hidden Content:</div>
<blockquote>You must reply before you can see the hidden data contained here.</blockquote>
</div></div>
<div class="messageTextEndMarker">&nbsp;</div>
</blockquote>
</article>]]></description>
                <author><![CDATA[fstambuk]]></author>
                </item>

                
                <item>
                <title><![CDATA[【HD Live Performances】WEB-DL - The Driver Era Lollapalooza Argentina (2024) 1080p FLOW WEB-DL AAC2.0 H.264-fstambuk]]></title>
                <link><![CDATA[https://sharemania.us/threads/the-driver-era-lollapalooza-argentina-2024-1080p-flow-web-dl-aac2-0-h-264-fstambuk.240522/]]></link>
                <description><![CDATA[<article>
<blockquote class="messageText SelectQuoteContainer ugc baseHtml">
<div style="text-align: center"><img src="https://i.ibb.co/pdLW4sD/20240323015211.gif" class="bbCodeImage LbImage" alt="[​IMG]" data-url="https://i.ibb.co/pdLW4sD/20240323015211.gif" style=""><br>
​</div>
<div class="ToggleTriggerAnchor bbCodeSpoilerContainer">
<button type="button" class="button bbCodeSpoilerButton ToggleTrigger Tooltip JsOnly" data-target="> .SpoilerTarget"><span>Spoiler: <span class="SpoilerTitle">Lollapalooza</span></span></button>
<div class="SpoilerTarget bbCodeSpoilerText">
<div class="bbCodeBlock bbCodeCode">
<div class="type">Code:</div>
<pre>Complete name                            : The Driver Era Lollapalooza Argentina (2024) 1080p FLOW WEB-DL AAC2.0 H.264-fstambuk.mkv
Format                                   : Matroska
Format version                           : Version 4
File size                                : 2.31 GiB
Duration                                 : 1 h 6 min
Overall bit rate                         : 4 973 kb/s
Frame rate                               : 29.970 FPS
Writing application                      : Lavf57.26.100
Writing library                          : Lavf57.26.100

Video
ID                                       : 1
Format                                   : AVC
Format/Info                              : Advanced Video Codec
Format profile                           : High@L4
Format settings                          : CABAC / 3 Ref Frames
Format settings, CABAC                   : Yes
Format settings, Reference frames        : 3 frames
Format settings, GOP                     : M=1, N=60
Codec ID                                 : V_MPEG4/ISO/AVC
Duration                                 : 1 h 6 min
Width                                    : 1 920 pixels
Height                                   : 1 080 pixels
Display aspect ratio                     : 16:9
Active Format Description                : Full frame 16:9 image
Frame rate mode                          : Constant
Frame rate                               : 29.970 (30000/1001) FPS
Color space                              : YUV
Chroma subsampling                       : 4:2:0
Bit depth                                : 8 bits
Scan type                                : Progressive
Writing library                          : AVC
Default                                  : Yes
Forced                                   : No
VENDOR_ID                                : TELE

Audio
ID                                       : 2
Format                                   : AAC LC SBR
Format/Info                              : Advanced Audio Codec Low Complexity with Spectral Band Replication
Commercial name                          : HE-AAC
Format settings                          : Implicit
Codec ID                                 : 2 / A_AAC-2
Duration                                 : 1 h 6 min
Channel(s)                               : 2 channels
Channel layout                           : L R
Sampling rate                            : 48.0 kHz
Frame rate                               : 23.438 FPS (2048 SPF)
Compression mode                         : Lossy
Language                                 : Spanish
Default                                  : Yes
Forced                                   : No</pre>
</div><div style="text-align: center">​</div></div>
</div><div style="text-align: center"><br>
<div class="bbCodeBlock bbCodeVfcHH HiddenContent">
<div class="attribution type">Hidden Content:</div>
<blockquote>You must reply before you can see the hidden data contained here.</blockquote>
</div></div>
<div class="messageTextEndMarker">&nbsp;</div>
</blockquote>
</article>]]></description>
                <author><![CDATA[fstambuk]]></author>
                </item>

                
                <item>
                <title><![CDATA[【Music Videos】Depeche Mode - Enjoy The Silence (Essentials Sounds Mix) (VJ-RoGeRs Video Edit) (Clean)]]></title>
                <link><![CDATA[https://sharemania.us/threads/depeche-mode-enjoy-the-silence-essentials-sounds-mix-vj-rogers-video-edit-clean.240515/]]></link>
                <description><![CDATA[<article>
<blockquote class="messageText SelectQuoteContainer ugc baseHtml">
<img src="https://i.ibb.co/db8mB9z/Depeche-Mode-Enjoy-The-Silence-Essentials-Sounds-Mix-VJ-Ro-Ge-Rs-Video-Edit-mp4-thumbs-2024-03-22-21.jpg" class="bbCodeImage LbImage" alt="[​IMG]" data-url="https://i.ibb.co/db8mB9z/Depeche-Mode-Enjoy-The-Silence-Essentials-Sounds-Mix-VJ-Ro-Ge-Rs-Video-Edit-mp4-thumbs-2024-03-22-21.jpg" style=""> <br>
<br>
<div class="ToggleTriggerAnchor bbCodeSpoilerContainer">
<button type="button" class="button bbCodeSpoilerButton ToggleTrigger Tooltip JsOnly" data-target="> .SpoilerTarget"><span>Spoiler: <span class="SpoilerTitle">MediaInfo</span></span></button>
<div class="SpoilerTarget bbCodeSpoilerText">Depeche Mode - Enjoy The Silence (Essentials Sounds Mix) (VJ-RoGeRs Video Edit).mp4<br>
Format : MPEG-4<br>
Format profile : Base Media / Version 2<br>
Codec ID : mp42 (mp42/mp41)<br>
File size : 327 MiB<br>
Duration : 4 min 26 s<br>
Overall bit rate mode : Variable<br>
Overall bit rate : 10.3 Mb/s<br>
Frame rate : 25.000 FPS<br>
Encoded date : 2020-05-28 04:40:58 UTC<br>
Tagged date : 2020-05-28 04:41:07 UTC<br>
TIM : 00:00:07:10<br>
TSC : 25<br>
TSZ : 1<br>
<br>
Video<br>
ID : 1<br>
Format : AVC<br>
Format/Info : Advanced Video Codec<br>
Format profile : High@L3.1<br>
Format settings : CABAC / 4 Ref Frames<br>
Format settings, CABAC : Yes<br>
Format settings, Reference : 4 frames<br>
Codec ID : avc1<br>
Codec ID/Info : Advanced Video Coding<br>
Duration : 4 min 26 s<br>
Bit rate mode : Variable<br>
Bit rate : 9 975 kb/s<br>
Maximum bit rate : 12.0 Mb/s<br>
Width : 720 pixels<br>
Height : 576 pixels<br>
Display aspect ratio : 4:3<br>
Original display aspect rat : 4:3<br>
Frame rate mode : Constant<br>
Frame rate : 25.000 FPS<br>
Standard : PAL<br>
Color space : YUV<br>
Chroma subsampling : 4:2:0<br>
Bit depth : 8 bits<br>
Scan type : Interlaced<br>
Scan type, store method : Separated fields<br>
Scan order : Top Field First<br>
Bits/(Pixel*Frame) : 0.962<br>
Stream size : 317 MiB (97%)<br>
Language : English<br>
Encoded date : 2020-05-28 04:40:58 UTC<br>
Tagged date : 2020-05-28 04:40:58 UTC<br>
Color range : Limited<br>
Color primaries : BT.601 PAL<br>
Transfer characteristics : BT.470 System B/G<br>
Matrix coefficients : BT.470 System B/G<br>
Codec configuration box : avcC<br>
<br>
Audio<br>
ID : 2<br>
Format : AAC LC<br>
Format/Info : Advanced Audio Codec Low Complexity<br>
Codec ID : mp4a-40-2<br>
Duration : 4 min 26 s<br>
Source duration : 4 min 26 s<br>
Bit rate mode : Variable<br>
Bit rate : 317 kb/s<br>
Maximum bit rate : 419 kb/s<br>
Channel(s) : 2 channels<br>
Channel layout : L R<br>
Sampling rate : 48.0 kHz<br>
Frame rate : 46.875 FPS (1024 SPF)<br>
Compression mode : Lossy<br>
Stream size : 10.1 MiB (3%)<br>
Source stream size : 10.1 MiB (3%)<br>
Language : English<br>
Encoded date : 2020-05-28 04:40:58 UTC<br>
Tagged date : 2020-05-28 04:40:58 UTC</div>
</div><br>
*Edición trabajada en base a multipistas, con el fin de sentir el tema de manera más armoniosa y escuchar otros sonidos que pasan desapercibidos! **Recomiendo escuchar con audífonos!!!<br>
**Edition worked based on multitracks, in order to feel the song in a more harmonious way and listen to other sounds that go unnoticed! **I recommend listening with headphones!!!<br>
<br>
<div class="bbCodeBlock bbCodeVfcHH HiddenContent">
<div class="attribution type">Hidden Content:</div>
<blockquote>You must reply before you can see the hidden data contained here.</blockquote>
</div>
<div class="messageTextEndMarker">&nbsp;</div>
</blockquote>
</article>]]></description>
                <author><![CDATA[DJ-RoGeRs-BS]]></author>
                </item>

                
                <item>
                <title><![CDATA[【HD Live Performances】UHDTV 4K - Arcade Fire - Lollapalooza Brazil 2024 (REC / 2160p HEVC, 5.1+2.0 AAC)]]></title>
                <link><![CDATA[https://sharemania.us/threads/arcade-fire-lollapalooza-brazil-2024-rec-2160p-hevc-5-1-2-0-aac.240514/]]></link>
                <description><![CDATA[<article>
<blockquote class="messageText SelectQuoteContainer ugc baseHtml">
<div style="text-align: center"><br>
<img src="https://files.catbox.moe/ay37bg.png" class="bbCodeImage LbImage" alt="[​IMG]" data-url="https://files.catbox.moe/ay37bg.png" style=""><br>
<img src="https://i.imgur.com/ZAOJjq9.jpeg" class="bbCodeImage LbImage" alt="[​IMG]" data-url="https://i.imgur.com/ZAOJjq9.jpeg" style=""><br>
<img src="https://files.catbox.moe/ay37bg.png" class="bbCodeImage LbImage" alt="[​IMG]" data-url="https://files.catbox.moe/ay37bg.png" style=""><br>
<br>
<span style="font-size: 26px"><b>SHOW 06 OF 07 (in 4k) FROM DAY 01 OF 03</b></span><br>
<br>
Mediainfo:<br>
<div class="ToggleTriggerAnchor bbCodeSpoilerContainer">
<button type="button" class="button bbCodeSpoilerButton ToggleTrigger Tooltip JsOnly" data-target="> .SpoilerTarget"><span>Spoiler</span></button>
<div class="SpoilerTarget bbCodeSpoilerText"><div style="text-align: left">
<div class="bbCodeBlock bbCodeCode">
<div class="type">Code:</div>
<pre>General
Complete name                            : Arcadefire-Lolla2024-2160@30p.mkv
Format                                   : Matroska
Format version                           : Version 4
File size                                : 10.1 GiB
Duration                                 : 1 h 18 min
Overall bit rate                         : 18.6 Mb/s
Frame rate                               : 30.000 FPS
Writing application                      : Lavf60.16.100
Writing library                          : Lavf60.16.100
ErrorDetectionType                       : Per level 1

Video
ID                                       : 1
Format                                   : HEVC
Format/Info                              : High Efficiency Video Coding
Format profile                           : Main 10@L5.1@High
Codec ID                                 : V_MPEGH/ISO/HEVC
Duration                                 : 1 h 17 min
Width                                    : 3 840 pixels
Height                                   : 2 160 pixels
Display aspect ratio                     : 16:9
Frame rate mode                          : Constant
Frame rate                               : 30.000 FPS
Standard                                 : NTSC
Color space                              : YUV
Chroma subsampling                       : 4:2:0
Bit depth                                : 10 bits
Time code of first frame                 : 23:12:16:02
Default                                  : No
Forced                                   : No
Color range                              : Limited
Color primaries                          : BT.709
Transfer characteristics                 : BT.709
Matrix coefficients                      : BT.709

Audio #1
ID                                       : 2
Format                                   : E-AC-3 JOC
Format/Info                              : Enhanced AC-3 with Joint Object Coding
Commercial name                          : Dolby Digital Plus with Dolby Atmos
Codec ID                                 : A_EAC3
Duration                                 : 1 h 18 min
Bit rate mode                            : Constant
Bit rate                                 : 448 kb/s
Channel(s)                               : 6 channels
Channel layout                           : L R C LFE Ls Rs
Sampling rate                            : 48.0 kHz
Frame rate                               : 31.250 FPS (1536 SPF)
Bit depth                                : 32 bits
Compression mode                         : Lossy
Delay relative to video                  : -384 ms
Stream size                              : 250 MiB (2%)
Service kind                             : Complete Main
Default                                  : Yes
Forced                                   : No
Complexity index                         : 12
Number of dynamic objects                : 0
Bed channel count                        : 12 channels
Bed channel configuration                : L R C LFE Ls Rs Lb Rb Tfl Tfr Tbl Tbr

Audio #2
ID                                       : 3
Format                                   : AAC LC
Format/Info                              : Advanced Audio Codec Low Complexity
Codec ID                                 : A_AAC-2
Duration                                 : 1 h 18 min
Channel(s)                               : 2 channels
Channel layout                           : L R
Sampling rate                            : 48.0 kHz
Frame rate                               : 46.875 FPS (1024 SPF)
Compression mode                         : Lossy
Delay relative to video                  : -384 ms
Default                                  : No
Forced                                   : No
</pre>
</div></div></div>
</div><span style="text-decoration: underline"><span style="color: #006600"><i><b><span style="font-size: 26px">je vous remercie!</span></b></i></span></span><br>
<br>
<img src="https://files.catbox.moe/ay37bg.png" class="bbCodeImage LbImage" alt="[​IMG]" data-url="https://files.catbox.moe/ay37bg.png" style=""><br>
<div class="bbCodeBlock bbCodeVfcHH HiddenContent">
<div class="attribution type">Hidden Content:</div>
<blockquote>You must reply before you can see the hidden data contained here.</blockquote>
</div><img src="https://files.catbox.moe/ay37bg.png" class="bbCodeImage LbImage" alt="[​IMG]" data-url="https://files.catbox.moe/ay37bg.png" style=""><br>
​</div>
<div class="messageTextEndMarker">&nbsp;</div>
</blockquote>
</article>]]></description>
                <author><![CDATA[sweetbee123]]></author>
                </item>

                
                <item>
                <title><![CDATA[【Cinema Center】MOVIE - O Grinch (2018) 1080p GLBO (GLOBOPLAY) WEB-DL DUAL AAC2.0 (ENG + BR-PT) H.264-DASH]]></title>
                <link><![CDATA[https://sharemania.us/threads/o-grinch-2018-1080p-glbo-globoplay-web-dl-dual-aac2-0-eng-br-pt-h-264-dash.240520/]]></link>
                <description><![CDATA[<article>
<blockquote class="messageText SelectQuoteContainer ugc baseHtml">
thanks
<div class="messageTextEndMarker">&nbsp;</div>
</blockquote>
</article>]]></description>
                <author><![CDATA[dash]]></author>
                </item>

                
                <item>
                <title><![CDATA[【Cinema Center】SERIES - O Sequestro (2017) 1080p GLBO (GLOBOPLAY) WEB-DL DUAL AAC2.0 (ENG + BR-PT) H.264-DASH]]></title>
                <link><![CDATA[https://sharemania.us/threads/o-sequestro-2017-1080p-glbo-globoplay-web-dl-dual-aac2-0-eng-br-pt-h-264-dash.240521/]]></link>
                <description><![CDATA[<article>
<blockquote class="messageText SelectQuoteContainer ugc baseHtml">
<span style="font-size: 22px"><b>O.Grinch.2018.1080p.GLBO.WEB-DL.AAC2.0.x264-DASH.mkv (Brazilian Portuguese + English)</b></span><br>
<span style="font-size: 18px"><br>
Original English Title: <b>The Grinch (2018)</b><br>
<br>
Brazilian Portuguese Title: <b>O Grinch (2018)</b><br>
<br>
Release:<b> 2018</b><br>
<br>
Language: <b><b>DUAL: Portuguese (Brazil) | English</b></b><br>
<br>
Source:</span><b><b> <span style="font-size: 18px">GLOBOPLAY (BRAZIL)</span></b></b><br>
<br>
<div class="ToggleTriggerAnchor bbCodeSpoilerContainer">
<button type="button" class="button bbCodeSpoilerButton ToggleTrigger Tooltip JsOnly" data-target="> .SpoilerTarget"><span>Spoiler: <span class="SpoilerTitle">MediaInfo</span></span></button>
<div class="SpoilerTarget bbCodeSpoilerText">General<br>
Unique ID : 120780789317587051754193661512081369404 (0x5ADD88ACB5C7D6C3610BA6E793AE693C)<br>
Complete name : O.Grinch.2018.1080p.GLBO.WEB-DL.AAC2.0.x264-DASH\O.Grinch.2018.1080p.GLBO.WEB-DL.AAC2.0.x264-DASH.mkv<br>
Format : Matroska<br>
Format version : Version 4<br>
File size : 2.84 GiB<br>
Duration : 1 h 22 min<br>
Overall bit rate : 4 917 kb/s<br>
Frame rate : 29.970 FPS<br>
Encoded date : 2024-03-22 22:10:15 UTC<br>
Writing application : mkvmerge v82.0 ('I'm The President') 64-bit<br>
Writing library : libebml v1.4.5 + libmatroska v1.7.1<br>
<br>
Video<br>
ID : 1<br>
Format : AVC<br>
Format/Info : Advanced Video Codec<br>
Format profile : High@L4<br>
Format settings : CABAC / 2 Ref Frames<br>
Format settings, CABAC : Yes<br>
Format settings, Reference frames : 2 frames<br>
Codec ID : V_MPEG4/ISO/AVC<br>
Duration : 1 h 22 min<br>
Bit rate : 4 660 kb/s<br>
Width : 1 920 pixels<br>
Height : 1 080 pixels<br>
Display aspect ratio : 16:9<br>
Frame rate mode : Constant<br>
Frame rate : 29.970 (29970/1000) FPS<br>
Color space : YUV<br>
Chroma subsampling : 4:2:0<br>
Bit depth : 8 bits<br>
Scan type : Progressive<br>
Bits/(Pixel*Frame) : 0.075<br>
Stream size : 2.69 GiB (95%)<br>
Title : Portuguese<br>
Writing library : x264 core 148<br>
Encoding settings : cabac=1 / ref=2 / deblock=1:0:0 / analyse=0x3:0x113 / me=hex / subme=4 / psy=1 / psy_rd=1.00:0.00 / mixed_ref=0 / me_range=16 / chroma_me=1 / trellis=1 / 8x8dct=1 / cqm=0 / deadzone=21,11 / fast_pskip=1 / chroma_qp_offset=0 / threads=24 / lookahead_threads=6 / sliced_threads=0 / nr=0 / decimate=1 / interlaced=0 / bluray_compat=0 / constrained_intra=0 / bframes=1 / b_pyramid=0 / b_adapt=1 / b_bias=0 / direct=1 / weightb=1 / open_gop=0 / weightp=1 / keyint=30 / keyint_min=16 / scenecut=0 / intra_refresh=0 / rc=2pass / mbtree=0 / bitrate=4660 / ratetol=1.0 / qcomp=0.60 / qpmin=0 / qpmax=69 / qpstep=4 / cplxblur=20.0 / qblur=0.5 / ip_ratio=1.40 / pb_ratio=1.30 / aq=1:1.00<br>
Language : Portuguese<br>
Default : Yes<br>
Forced : No<br>
<br>
Audio #1<br>
ID : 2<br>
Format : AAC LC<br>
Format/Info : Advanced Audio Codec Low Complexity<br>
Codec ID : A_AAC-2<br>
Duration : 1 h 22 min<br>
Bit rate : 128 kb/s<br>
Channel(s) : 2 channels<br>
Channel layout : L R<br>
Sampling rate : 44.1 kHz<br>
Frame rate : 43.066 FPS (1024 SPF)<br>
Compression mode : Lossy<br>
Stream size : 75.7 MiB (3%)<br>
Title : English<br>
Language : English<br>
Default : Yes<br>
Forced : No<br>
<br>
Audio #2<br>
ID : 3<br>
Format : AAC LC<br>
Format/Info : Advanced Audio Codec Low Complexity<br>
Codec ID : A_AAC-2<br>
Duration : 1 h 22 min<br>
Bit rate : 128 kb/s<br>
Channel(s) : 2 channels<br>
Channel layout : L R<br>
Sampling rate : 44.1 kHz<br>
Frame rate : 43.066 FPS (1024 SPF)<br>
Compression mode : Lossy<br>
Stream size : 75.7 MiB (3%)<br>
Title : Portuguese<br>
Language : Portuguese<br>
Default : No<br>
Forced : No<br>
<br>
Text #1<br>
ID : 4<br>
Format : UTF-8<br>
Codec ID : S_TEXT/UTF8<br>
Codec ID/Info : UTF-8 Plain Text<br>
Duration : 1 h 21 min<br>
Bit rate : 46 b/s<br>
Frame rate : 0.207 FPS<br>
Count of elements : 1015<br>
Stream size : 28.0 KiB (0%)<br>
Title : Portuguese<br>
Language : Portuguese<br>
Default : No<br>
Forced : No<br>
<br>
Text #2<br>
ID : 5<br>
Format : UTF-8<br>
Codec ID : S_TEXT/UTF8<br>
Codec ID/Info : UTF-8 Plain Text<br>
Duration : 1 h 21 min<br>
Bit rate : 46 b/s<br>
Frame rate : 0.207 FPS<br>
Count of elements : 1015<br>
Stream size : 28.0 KiB (0%)<br>
Title : Portuguese<br>
Language : Portuguese<br>
Default : No<br>
Forced : No</div>
</div><br>
<img src="https://i.imgur.com/VHiMkPv.jpeg" class="bbCodeImage LbImage" alt="[​IMG]" data-url="https://i.imgur.com/VHiMkPv.jpeg" style=""> <br>
<b><span style="font-size: 22px"> <br>
Os moradores de Quemlândia preparam uma festa natalina. Grinch, o pequeno ser verde que detesta o feriado, cria um plano maléfico: sumir com todos os itens de Natal.<br>
<br>
Screenshots:</span></b><br>
<img src="https://i.imgur.com/n4oPhEF.png" class="bbCodeImage LbImage" alt="[​IMG]" data-url="https://i.imgur.com/n4oPhEF.png" style=""> <br>
<b><span style="font-size: 22px"><br>
<b><span style="font-size: 26px">Download on MEGA:</span></b></span><br>
<span style="font-size: 18px">
<div class="bbCodeBlock bbCodeVfcHH HiddenContent">
<div class="attribution type">Hidden Content:</div>
<blockquote>You must reply before you can see the hidden data contained here.</blockquote>
</div></span></b>
<div class="messageTextEndMarker">&nbsp;</div>
</blockquote>
</article>]]></description>
                <author><![CDATA[dash]]></author>
                </item>

                
                <item>
                <title><![CDATA[【Cinema Center】MOVIE - O Grinch (2000) 1080p GLBO (GLOBOPLAY) WEB-DL DUAL AAC2.0 (ENG + BR-PT) H.264-DASH]]></title>
                <link><![CDATA[https://sharemania.us/threads/o-grinch-2000-1080p-glbo-globoplay-web-dl-dual-aac2-0-eng-br-pt-h-264-dash.240518/]]></link>
                <description><![CDATA[<article>
<blockquote class="messageText SelectQuoteContainer ugc baseHtml">
<span style="font-size: 22px"><b>O.Sequestro.2017.1080p.GLBO.WEB-DL.AAC2.0.H.264-DASH.mkv (Brazilian Portuguese + English)</b></span><br>
<span style="font-size: 18px"><br>
Original English Title: <b>Kidnap</b><br>
<br>
Brazilian Portuguese Title:<b><b> O Sequestro</b></b><br>
<br>
Release:<b> 2017</b><br>
<br>
Language: <b><b>DUAL: Portuguese (Brazil) | English</b></b><br>
<br>
Source:</span><b><b> <span style="font-size: 18px">GLOBOPLAY (BRAZIL)</span></b></b><br>
<br>
<div class="ToggleTriggerAnchor bbCodeSpoilerContainer">
<button type="button" class="button bbCodeSpoilerButton ToggleTrigger Tooltip JsOnly" data-target="> .SpoilerTarget"><span>Spoiler: <span class="SpoilerTitle">MediaInfo</span></span></button>
<div class="SpoilerTarget bbCodeSpoilerText">General<br>
Unique ID : 238998316094371832878186914289396580138 (0xB3CD66BFB024A022506DF68A72E57F2A)<br>
Complete name : O.Sequestro.2017.1080p.GLBO.WEB-DL.AAC2.0.H.264-DASH\O.Sequestro.2017.1080p.GLBO.WEB-DL.AAC2.0.H.264-DASH.mkv<br>
Format : Matroska<br>
Format version : Version 4<br>
File size : 3.15 GiB<br>
Duration : 1 h 33 min<br>
Overall bit rate : 4 839 kb/s<br>
Frame rate : 29.970 FPS<br>
Encoded date : 2024-03-22 22:25:54 UTC<br>
Writing application : mkvmerge v82.0 ('I'm The President') 64-bit<br>
Writing library : libebml v1.4.5 + libmatroska v1.7.1<br>
<br>
Video<br>
ID : 1<br>
Format : AVC<br>
Format/Info : Advanced Video Codec<br>
Format profile : Main@L4<br>
Format settings : CABAC / 4 Ref Frames<br>
Format settings, CABAC : Yes<br>
Format settings, Reference frames : 4 frames<br>
Codec ID : V_MPEG4/ISO/AVC<br>
Duration : 1 h 33 min<br>
Bit rate : 4 579 kb/s<br>
Width : 1 920 pixels<br>
Height : 1 080 pixels<br>
Display aspect ratio : 16:9<br>
Frame rate mode : Constant<br>
Frame rate : 29.970 (30000/1001) FPS<br>
Color space : YUV<br>
Chroma subsampling : 4:2:0<br>
Bit depth : 8 bits<br>
Scan type : Progressive<br>
Bits/(Pixel*Frame) : 0.074<br>
Stream size : 2.98 GiB (95%)<br>
Title : Portuguese<br>
Language : Portuguese<br>
Default : Yes<br>
Forced : No<br>
<br>
Audio #1<br>
ID : 2<br>
Format : AAC LC<br>
Format/Info : Advanced Audio Codec Low Complexity<br>
Codec ID : A_AAC-2<br>
Duration : 1 h 33 min<br>
Bit rate : 128 kb/s<br>
Channel(s) : 2 channels<br>
Channel layout : L R<br>
Sampling rate : 44.1 kHz<br>
Frame rate : 43.066 FPS (1024 SPF)<br>
Compression mode : Lossy<br>
Stream size : 85.4 MiB (3%)<br>
Title : English<br>
Language : English<br>
Default : Yes<br>
Forced : No<br>
<br>
Audio #2<br>
ID : 3<br>
Format : AAC LC<br>
Format/Info : Advanced Audio Codec Low Complexity<br>
Codec ID : A_AAC-2<br>
Duration : 1 h 33 min<br>
Bit rate : 128 kb/s<br>
Channel(s) : 2 channels<br>
Channel layout : L R<br>
Sampling rate : 44.1 kHz<br>
Frame rate : 43.066 FPS (1024 SPF)<br>
Compression mode : Lossy<br>
Stream size : 85.4 MiB (3%)<br>
Title : Portuguese<br>
Language : Portuguese<br>
Default : No<br>
Forced : No<br>
<br>
Text #1<br>
ID : 4<br>
Format : UTF-8<br>
Codec ID : S_TEXT/UTF8<br>
Codec ID/Info : UTF-8 Plain Text<br>
Duration : 1 h 32 min<br>
Bit rate : 29 b/s<br>
Frame rate : 0.118 FPS<br>
Count of elements : 651<br>
Stream size : 19.6 KiB (0%)<br>
Title : Portuguese<br>
Language : Portuguese<br>
Default : No<br>
Forced : No<br>
<br>
Text #2<br>
ID : 5<br>
Format : UTF-8<br>
Codec ID : S_TEXT/UTF8<br>
Codec ID/Info : UTF-8 Plain Text<br>
Duration : 1 h 32 min<br>
Bit rate : 29 b/s<br>
Frame rate : 0.118 FPS<br>
Count of elements : 651<br>
Stream size : 19.6 KiB (0%)<br>
Title : Portuguese<br>
Language : Portuguese<br>
Default : No<br>
Forced : No</div>
</div><br>
<img src="https://i.imgur.com/OEscmr2.jpeg" class="bbCodeImage LbImage" alt="[​IMG]" data-url="https://i.imgur.com/OEscmr2.jpeg" style=""> <br>
<br>
<b><span style="font-size: 22px">O filho de Karla é sequestrado em um parque de diversões. Com a negligência da polícia diante do caso, ela decide iniciar sozinha uma perseguição aos criminosos.<br>
<br>
Screenshots:</span></b><br>
<img src="https://i.imgur.com/jTzynWx.png" class="bbCodeImage LbImage" alt="[​IMG]" data-url="https://i.imgur.com/jTzynWx.png" style=""> <br>
<br>
<b><span style="font-size: 22px"><br>
<b><span style="font-size: 26px">Download on MEGA:</span></b></span><br>
<span style="font-size: 18px">
<div class="bbCodeBlock bbCodeVfcHH HiddenContent">
<div class="attribution type">Hidden Content:</div>
<blockquote>You must reply before you can see the hidden data contained here.</blockquote>
</div></span></b>
<div class="messageTextEndMarker">&nbsp;</div>
</blockquote>
</article>]]></description>
                <author><![CDATA[dash]]></author>
                </item>

                
                <item>
                <title><![CDATA[【SD Live Performances】SDTV - Mariah Carey - We Belong Together - MTV Movie Awards 2005-06-09 480i MPA2.0 MPEG2]]></title>
                <link><![CDATA[https://sharemania.us/threads/mariah-carey-we-belong-together-mtv-movie-awards-2005-06-09-480i-mpa2-0-mpeg2.240517/]]></link>
                <description><![CDATA[<article>
<blockquote class="messageText SelectQuoteContainer ugc baseHtml">
<span style="font-size: 22px"><b>O.Grinch.2000.1080p.GLBO.WEB-DL.AAC2.0.x264-DASH.mkv (Brazilian Portuguese + English)</b></span><br>
<span style="font-size: 18px"><br>
Original English Title: <b>Dr. Seuss' How The Grinch Stole Christmas! (2000)</b><br>
<br>
Brazilian Portuguese Title:<b><b> O Grinch (2000)</b></b><br>
<br>
Release:<b> 2000</b><br>
<br>
Language: <b><b>DUAL: Portuguese (Brazil) | English</b></b><br>
<br>
Source:</span><b><b> <span style="font-size: 18px">GLOBOPLAY (BRAZIL)</span></b></b><br>
<br>
<div class="ToggleTriggerAnchor bbCodeSpoilerContainer">
<button type="button" class="button bbCodeSpoilerButton ToggleTrigger Tooltip JsOnly" data-target="> .SpoilerTarget"><span>Spoiler: <span class="SpoilerTitle">MediaInfo</span></span></button>
<div class="SpoilerTarget bbCodeSpoilerText">General<br>
Unique ID : 214473336724089330914968301855281809709 (0xA15A0FE8DCEBFA86CC36C30FEDB4892D)<br>
Complete name : O.Grinch.2000.1080p.GLBO.WEB-DL.AAC2.0.x264-DASH\O.Grinch.2000.1080p.GLBO.WEB-DL.AAC2.0.x264-DASH.mkv<br>
Format : Matroska<br>
Format version : Version 4<br>
File size : 3.01 GiB<br>
Duration : 1 h 44 min<br>
Overall bit rate : 4 106 kb/s<br>
Frame rate : 29.970 FPS<br>
Encoded date : 2024-03-22 21:58:55 UTC<br>
Writing application : mkvmerge v82.0 ('I'm The President') 64-bit<br>
Writing library : libebml v1.4.5 + libmatroska v1.7.1<br>
<br>
Video<br>
ID : 1<br>
Format : AVC<br>
Format/Info : Advanced Video Codec<br>
Format profile : High@L4<br>
Format settings : CABAC / 2 Ref Frames<br>
Format settings, CABAC : Yes<br>
Format settings, Reference frames : 2 frames<br>
Format settings, GOP : M=2, N=30<br>
Codec ID : V_MPEG4/ISO/AVC<br>
Duration : 1 h 44 min<br>
Bit rate : 3 850 kb/s<br>
Width : 1 920 pixels<br>
Height : 1 080 pixels<br>
Display aspect ratio : 16:9<br>
Frame rate mode : Constant<br>
Frame rate : 29.970 (29970/1000) FPS<br>
Color space : YUV<br>
Chroma subsampling : 4:2:0<br>
Bit depth : 8 bits<br>
Scan type : Progressive<br>
Bits/(Pixel*Frame) : 0.062<br>
Stream size : 2.82 GiB (94%)<br>
Title : Portuguese<br>
Writing library : x264 core 155<br>
Encoding settings : cabac=1 / ref=2 / deblock=1:0:0 / analyse=0x3:0x113 / me=hex / subme=4 / psy=1 / psy_rd=1.00:0.00 / mixed_ref=0 / me_range=16 / chroma_me=1 / trellis=1 / 8x8dct=1 / cqm=0 / deadzone=21,11 / fast_pskip=1 / chroma_qp_offset=0 / threads=34 / lookahead_threads=8 / sliced_threads=0 / nr=0 / decimate=1 / interlaced=0 / bluray_compat=0 / constrained_intra=0 / bframes=1 / b_pyramid=0 / b_adapt=1 / b_bias=0 / direct=1 / weightb=1 / open_gop=0 / weightp=1 / keyint=30 / keyint_min=16 / scenecut=0 / intra_refresh=0 / rc=2pass / mbtree=0 / bitrate=3850 / ratetol=1.0 / qcomp=0.60 / qpmin=0 / qpmax=69 / qpstep=4 / cplxblur=20.0 / qblur=0.5 / ip_ratio=1.40 / pb_ratio=1.30 / aq=1:1.00<br>
Language : Portuguese<br>
Default : Yes<br>
Forced : No<br>
<br>
Audio #1<br>
ID : 2<br>
Format : AAC LC<br>
Format/Info : Advanced Audio Codec Low Complexity<br>
Codec ID : A_AAC-2<br>
Duration : 1 h 44 min<br>
Bit rate : 128 kb/s<br>
Channel(s) : 2 channels<br>
Channel layout : L R<br>
Sampling rate : 44.1 kHz<br>
Frame rate : 43.066 FPS (1024 SPF)<br>
Compression mode : Lossy<br>
Stream size : 96.1 MiB (3%)<br>
Title : English<br>
Language : English<br>
Default : Yes<br>
Forced : No<br>
<br>
Audio #2<br>
ID : 3<br>
Format : AAC LC<br>
Format/Info : Advanced Audio Codec Low Complexity<br>
Codec ID : A_AAC-2<br>
Duration : 1 h 44 min<br>
Bit rate : 128 kb/s<br>
Channel(s) : 2 channels<br>
Channel layout : L R<br>
Sampling rate : 44.1 kHz<br>
Frame rate : 43.066 FPS (1024 SPF)<br>
Compression mode : Lossy<br>
Stream size : 96.1 MiB (3%)<br>
Title : Portuguese<br>
Language : Portuguese<br>
Default : No<br>
Forced : No<br>
<br>
Text #1<br>
ID : 4<br>
Format : UTF-8<br>
Codec ID : S_TEXT/UTF8<br>
Codec ID/Info : UTF-8 Plain Text<br>
Duration : 1 h 43 min<br>
Bit rate : 47 b/s<br>
Frame rate : 0.200 FPS<br>
Count of elements : 1247<br>
Stream size : 36.3 KiB (0%)<br>
Title : Portuguese<br>
Language : Portuguese<br>
Default : No<br>
Forced : No<br>
<br>
Text #2<br>
ID : 5<br>
Format : UTF-8<br>
Codec ID : S_TEXT/UTF8<br>
Codec ID/Info : UTF-8 Plain Text<br>
Duration : 1 h 43 min<br>
Bit rate : 47 b/s<br>
Frame rate : 0.200 FPS<br>
Count of elements : 1247<br>
Stream size : 36.3 KiB (0%)<br>
Title : Portuguese<br>
Language : Portuguese<br>
Default : No<br>
Forced : No</div>
</div><br>
<img src="https://i.imgur.com/FeIirWm.jpeg" class="bbCodeImage LbImage" alt="[​IMG]" data-url="https://i.imgur.com/FeIirWm.jpeg" style=""> <br>
<b><span style="font-size: 22px"><br>
O filho de Karla é sequestrado em um parque de diversões. Com a negligência da polícia diante do caso, ela decide iniciar sozinha uma perseguição aos criminosos.<br>
<br>
<br>
Screenshots:</span></b><br>
<img src="https://i.imgur.com/JeMEW9i.png" class="bbCodeImage LbImage" alt="[​IMG]" data-url="https://i.imgur.com/JeMEW9i.png" style=""> <br>
<b><span style="font-size: 22px"><br>
<b><span style="font-size: 26px">Download on MEGA:</span></b></span><br>
<span style="font-size: 18px">
<div class="bbCodeBlock bbCodeVfcHH HiddenContent">
<div class="attribution type">Hidden Content:</div>
<blockquote>You must reply before you can see the hidden data contained here.</blockquote>
</div></span></b>
<div class="messageTextEndMarker">&nbsp;</div>
</blockquote>
</article>]]></description>
                <author><![CDATA[SCANDAL]]></author>
                </item>

                </channel></rss>